<svg xmlns="http://www.w3.org/2000/svg" viewBox="5 50 155 65"><g fill-rule="evenodd" clip-rule="evenodd" fill="currentColor"><path d="M99.744 57.024c-.773 6.191 1.564 20.647 12.383 26.83 10.834 6.191 11.867 9.544 12.125 12.125h-22.961v15.736h24.768c7.223 0 12.123-4.902 14.188-10.061 2.064-5.16 2.58-17.285-8.256-22.445-10.834-5.159-15.994-9.544-15.994-22.186H99.744v.001zM142.568 57.024c-.773 6.191 1.564 20.647 12.383 26.83 10.834 6.191 11.865 9.544 12.125 12.125h-22.961v15.736h24.766c7.223 0 12.125-4.902 14.189-10.061 2.062-5.16 2.58-17.285-8.256-22.445-10.834-5.159-15.994-9.544-15.994-22.186h-16.252v.001zM74.205 71.814c4.231 0 7.662 5.391 7.662 12.04 0 6.648-3.43 12.039-7.662 12.039-4.231 0-7.661-5.391-7.661-12.039 0-1.796.25-3.5.699-5.03l-12.079-.01a43.091 43.091 0 0 0-.294 5.041c0 15.513 8.657 28.091 19.336 28.091 10.679 0 19.336-12.578 19.336-28.091 0-15.515-8.658-28.092-19.336-28.092-7.729 0-14.399 6.524-17.494 16.047l17.493.004zM32.414 57.088c8.513 0 15.414 6.901 15.414 15.414 0 4.257-1.726 8.11-4.515 10.899 3.206 2.966 5.077 7.349 5.077 12.061 0 8.965-7.269 16.235-16.235 16.235l-23.604.018V97.258h22.057a2.828 2.828 0 1 0 0-5.655H8.551V77.146l20.767-.01a2.828 2.828 0 0 0 0-5.656H8.551V57.024l23.863.064z"/></g></svg>
