<svg version="1.0" xmlns="http://www.w3.org/2000/svg"
 viewBox="0 0 947.000000 157.000000"
 preserveAspectRatio="xMidYMid meet">
<g transform="translate(0.000000,157.000000) scale(0.100000,-0.100000)"
fill="currentColor" stroke="none">
<path d="M338 1563 c23 -2 42 -5 43 -6 0 -1 4 -194 8 -429 l7 -426 32 -64 c39
-80 130 -169 207 -204 219 -101 471 -11 578 205 30 63 32 71 32 181 0 111 -1
117 -34 179 -66 128 -181 217 -310 241 -29 5 -136 10 -237 10 l-184 0 0 160 0
160 -92 -2 c-51 -1 -74 -3 -50 -5z"/>
<path d="M1640 790 l0 -780 -822 -3 -823 -2 983 -3 982 -2 0 785 0 785 -160 0
-160 0 0 -780z"/>
<path d="M2370 985 l0 -585 495 0 495 0 0 95 c0 93 -1 96 -26 105 -15 6 -181
10 -400 10 l-374 0 0 190 0 190 400 0 400 0 0 95 c0 83 -2 96 -19 105 -13 6
-157 10 -400 10 l-381 0 0 185 0 185 -95 0 -95 0 0 -585z"/>
<path d="M3513 1563 l128 -4 48 -47 c69 -66 73 -89 69 -361 -3 -189 -6 -231
-20 -257 -20 -37 -78 -89 -109 -99 -22 -7 -22 -8 7 -22 39 -20 82 -61 102 -98
14 -25 18 -69 20 -256 4 -272 0 -295 -69 -361 l-48 -48 -193 -3 c-106 -1 -6
-3 222 -5 l415 -2 -52 30 c-83 48 -95 72 -106 219 -4 69 -7 360 -5 646 3 502
4 521 24 559 11 22 37 54 58 70 37 31 40 31 179 37 78 3 -69 5 -328 5 -258 0
-412 -2 -342 -3z"/>
<path d="M5387 1560 c80 -7 135 -37 167 -90 29 -49 35 -181 35 -685 0 -504 -6
-636 -35 -685 -31 -51 -87 -83 -162 -90 -37 -4 138 -7 388 -6 250 0 381 2 291
3 -159 3 -166 4 -198 29 -19 14 -46 44 -61 67 -26 39 -27 45 -31 209 l-3 168
201 0 201 0 0 -39 c0 -74 -19 -71 455 -71 251 0 434 4 449 10 25 9 26 13 26
89 0 61 -4 82 -17 92 -13 11 -124 15 -592 19 -517 4 -579 7 -607 22 -40 22
-92 81 -101 116 -5 15 -8 183 -7 374 l0 346 28 37 c16 20 49 50 74 66 l46 29
-310 -1 c-177 -1 -278 -5 -237 -9z"/>
<path d="M7340 1561 c71 -8 123 -41 158 -99 26 -46 27 -52 31 -229 l3 -183
-211 0 -211 0 0 40 c0 35 -4 42 -26 51 -17 6 -185 9 -456 7 -368 -3 -430 -5
-438 -18 -5 -8 -10 -45 -10 -83 0 -64 1 -68 28 -79 18 -8 211 -13 609 -18
l583 -6 37 -30 c71 -58 75 -68 85 -226 5 -78 8 -231 6 -338 -4 -218 -7 -230
-77 -293 -44 -39 -59 -45 -136 -50 -27 -2 117 -3 320 -4 204 0 336 3 295 6
-92 7 -139 33 -177 98 -25 44 -27 54 -31 209 l-5 164 202 0 201 0 0 -33 c0
-18 6 -42 14 -53 14 -18 32 -19 438 -22 281 -2 434 1 452 8 28 10 28 10 25 94
-2 47 -8 88 -12 93 -5 4 -271 10 -591 13 l-582 5 -41 27 c-23 15 -53 43 -68
62 l-27 35 -5 293 c-7 429 2 476 110 538 l52 30 -300 -2 c-165 0 -275 -4 -245
-7z"/>
<path d="M9140 1561 c191 -6 207 -8 236 -28 53 -38 82 -85 87 -139 2 -27 4 2
5 64 l2 112 -267 -2 -268 -2 205 -5z"/>
<path d="M140 790 l0 -640 680 0 680 0 0 640 0 640 -440 0 -440 0 0 -24 c0
-23 0 -23 158 -29 236 -9 316 -39 443 -166 174 -174 217 -413 113 -629 -45
-94 -158 -211 -251 -260 -156 -82 -370 -82 -527 0 -91 48 -205 166 -251 262
-47 99 -54 169 -55 554 l0 292 -55 0 -55 0 0 -640z"/>
<path d="M4365 1162 c-29 -7 -30 -10 -38 -77 -13 -115 -5 -651 11 -667 10 -10
96 -13 400 -13 213 0 399 3 415 8 l27 7 0 364 c0 337 -1 364 -17 372 -22 10
-756 15 -798 6z"/>
<path d="M8132 1125 c-16 -36 -15 -127 2 -150 13 -18 39 -20 602 -25 l589 -5
43 -25 c50 -28 83 -77 93 -135 4 -23 7 24 8 113 l1 152 -210 0 -210 0 0 40 c0
34 -4 42 -26 50 -15 6 -199 10 -453 10 l-428 0 -11 -25z"/>
<path d="M9460 182 c0 -38 -6 -58 -30 -90 -42 -58 -69 -73 -152 -82 -67 -7
-62 -7 60 -9 l132 -1 0 115 c0 63 -2 115 -5 115 -3 0 -5 -22 -5 -48z"/>
</g>
</svg>
