<svg viewBox="0 0 24 24" fill="none" stroke="currentColor" stroke-width="1.5" xmlns="http://www.w3.org/2000/svg">
  <path d="M8 1v8" stroke-linecap="round"/>
  <path d="M6 3h4" stroke-linecap="round"/>
  <path d="M6 5h4" stroke-linecap="round"/>
  <path d="M8 9c-3 1-6 4-6 8 0 2.5 2 4.5 4.5 5 2 .4 3.5-.5 4.5-2 .5-.8 1-1.8 1.5-2 1-.5 2.5 0 3.5.5 1.5.7 3 .5 4-.5 1.5-1.5 1.5-4 0-6-1-1.5-3-2.5-5-2.5H12" stroke-linecap="round" stroke-linejoin="round"/>
  <circle cx="7" cy="15" r="1.2"/>
  <circle cx="9" cy="18" r="1.2"/>
</svg>
