<svg viewBox="0 0 24 24" fill="none" stroke="currentColor" stroke-width="1.5" xmlns="http://www.w3.org/2000/svg">
  <path d="M7 2l0 6" stroke-linecap="round"/>
  <path d="M7 8c-3 1-5 4-5 7 0 2 1 3.5 2.5 4.5 1 .6 2 .5 3-.2.8-.6 1.2-1.5 1-2.5-.2-.8.2-1.6 1-1.8 1.2-.4 2.2.5 3 1.2 1 .8 2.2 1.2 3.5.8 2-.6 3-2.5 3-4.5 0-3-2.5-5.5-5.5-5.5H11" stroke-linecap="round" stroke-linejoin="round"/>
  <circle cx="6" cy="14" r="1"/>
  <circle cx="8" cy="17" r="1"/>
  <line x1="17" y1="2" x2="17" y2="6" stroke-linecap="round"/>
  <path d="M14 4h6" stroke-linecap="round"/>
</svg>
