<svg width="24" height="24" viewBox="0 0 24 24" fill="none" xmlns="http://www.w3.org/2000/svg">
  <path d="M12 8.5C10.067 8.5 8.5 10.067 8.5 12C8.5 13.933 10.067 15.5 12 15.5C13.933 15.5 15.5 13.933 15.5 12C15.5 10.067 13.933 8.5 12 8.5Z" stroke="#F5F7FF" stroke-width="1.8"/>
  <path d="M19.4 13.5C19.4667 13.01 19.5 12.51 19.5 12C19.5 11.49 19.4667 10.99 19.4 10.5L21.3 9.02L19.5 5.98L17.21 6.7C16.45 6.09 15.59 5.61 14.65 5.3L14.2 3H9.8L9.35 5.3C8.41 5.61 7.55 6.09 6.79 6.7L4.5 5.98L2.7 9.02L4.6 10.5C4.53333 10.99 4.5 11.49 4.5 12C4.5 12.51 4.53333 13.01 4.6 13.5L2.7 14.98L4.5 18.02L6.79 17.3C7.55 17.91 8.41 18.39 9.35 18.7L9.8 21H14.2L14.65 18.7C15.59 18.39 16.45 17.91 17.21 17.3L19.5 18.02L21.3 14.98L19.4 13.5Z" stroke="#F5F7FF" stroke-width="1.8" stroke-linejoin="round"/>
</svg>
