<svg xmlns="http://www.w3.org/2000/svg" viewBox="0 0 792 400">
  <g transform="translate(0,400) scale(0.1,-0.1)" fill="white" stroke="none">
    <path d="M1688 3332 c-20 -20 -46 -56 -57 -79 l-21 -43 2 -1067 3 -1068 22
-40 c11 -22 35 -53 53 -70 l31 -30 175 -3 174 -3 0 -150 0 -149 60 0 60 0 0
150 0 150 130 0 130 0 0 -150 0 -150 230 0 230 0 0 145 c0 109 3 145 13 145 9
0 11 -34 9 -145 -2 -97 0 -145 7 -145 7 0 11 49 11 140 0 77 3 140 6 140 5 0
186 -159 277 -243 l37 -35 303 0 302 0 22 24 c18 19 32 24 72 24 27 0 53 -4
56 -10 3 -5 30 -10 60 -10 38 0 54 -4 59 -15 5 -13 42 -15 250 -15 l244 0 45
33 c26 17 96 79 156 135 l110 104 4 -139 3 -138 2 148 c1 81 6 147 11 147 5 0
16 3 25 6 14 5 16 -11 16 -145 l0 -151 260 0 260 0 0 155 0 155 330 0 330 0 0
-155 c0 -133 2 -155 15 -155 14 0 16 21 14 155 l-1 156 31 27 c64 57 61 -7 61
1176 0 642 -4 1085 -9 1099 -5 14 -30 48 -55 76 l-45 51 -2238 -1 -2238 0 -37
-37z m672 -197 l0 -135 -147 0 -148 0 3 -127 c2 -96 0 -128 -10 -134 -7 -5
-55 -9 -106 -9 -76 0 -94 -3 -99 -16 -3 -9 -1 -25 5 -35 7 -10 12 -54 12 -97
0 -83 5 -99 27 -81 9 8 13 37 13 90 0 85 19 112 22 32 l1 -48 4 43 c2 23 8 42
12 42 19 0 70 -74 216 -315 213 -350 392 -645 444 -730 57 -93 69 -105 103
-105 l28 0 0 -126 0 -127 -38 5 c-21 3 -58 15 -82 27 -24 11 -45 21 -47 21 -2
0 -3 -67 -3 -150 l0 -150 -25 0 -25 0 0 164 0 164 -40 21 c-22 12 -43 21 -45
21 -3 0 -5 -83 -5 -185 l0 -185 -34 0 c-18 0 -48 3 -65 6 l-31 7 0 213 c0 201
-1 214 -19 224 -11 5 -22 10 -25 10 -3 0 -6 -104 -6 -231 l0 -231 -31 6 c-17
3 -39 6 -48 6 -14 0 -16 22 -13 221 l3 221 -23 -18 c-13 -11 -85 -79 -161
-153 l-137 -135 0 -68 0 -68 -40 0 c-35 0 -40 3 -41 23 0 20 -1 21 -8 2 -7
-18 -9 -17 -27 10 -18 28 -19 56 -21 535 -1 278 0 750 4 1048 l6 544 43 -4 44
-3 0 42 0 42 93 4 c50 1 176 4 280 5 l187 2 0 -135z m2260 65 l0 -70 -70 0
-70 0 0 -66 c0 -41 -4 -63 -10 -59 -5 3 -10 35 -10 71 0 86 -20 83 -22 -3 l-2
-68 -6 70 -6 70 -2 -64 c-2 -53 -5 -62 -18 -57 -9 3 -19 6 -22 6 -4 0 -5 23
-3 51 2 29 -2 56 -8 62 -8 8 -11 -5 -13 -49 l-1 -59 -7 60 -7 60 -1 -52 c-2
-40 -6 -53 -17 -53 -11 0 -15 13 -17 53 l-2 52 -3 -52 c-5 -71 -23 -67 -25 5
l-1 57 -7 -55 -7 -55 -1 53 c-2 48 -4 52 -27 52 -23 0 -25 -3 -25 -50 l0 -50
-40 0 -40 0 0 50 0 50 -110 0 -110 0 0 -50 c0 -43 -3 -50 -20 -50 -17 0 -20 7
-20 50 0 28 -4 50 -10 50 -5 0 -10 -22 -10 -49 0 -34 -4 -51 -15 -55 -12 -4
-15 5 -15 50 0 34 -4 53 -10 49 -5 -3 -10 -28 -10 -55 0 -33 -5 -50 -15 -54
-12 -4 -15 5 -15 55 0 43 -4 59 -12 57 -8 -3 -11 -24 -9 -61 2 -42 -1 -57 -11
-57 -9 0 -13 15 -13 51 0 42 -3 52 -17 55 -16 2 -18 -7 -20 -64 l-1 -67 -7 65
-7 65 -1 -67 c-2 -52 -5 -68 -17 -68 -10 0 -15 16 -18 63 l-3 62 -2 -66 -2
-66 -50 -21 -49 -21 -4 77 -3 77 -2 -80 -2 -81 -41 -34 c-23 -19 -48 -38 -54
-42 -7 -5 -29 -32 -49 -62 -44 -66 -56 -75 -56 -42 0 13 -6 26 -12 28 -9 3
-15 39 -19 109 l-6 104 -1 -137 c-2 -115 -4 -138 -17 -138 -13 0 -15 22 -15
135 0 83 -4 135 -10 135 -6 0 -10 -52 -10 -135 0 -83 -4 -135 -10 -135 -6 0
-10 52 -10 135 0 126 -1 135 -19 135 -50 0 -51 -4 -51 -147 l0 -134 -45 2
c-25 2 -51 -3 -57 -9 -8 -8 -47 -12 -105 -12 -55 0 -93 -4 -93 -10 0 -6 37
-10 90 -10 113 0 130 -12 130 -95 0 -59 4 -63 38 -39 17 12 22 25 22 60 0 40
2 44 25 44 19 0 25 -5 26 -22 1 -17 2 -19 6 -6 4 16 6 16 19 4 20 -21 17 -36
-8 -37 l-23 -2 23 -4 c12 -2 22 -8 22 -13 0 -12 -60 -125 -170 -325 -46 -82
-101 -184 -123 -225 -22 -41 -41 -76 -42 -78 -7 -10 -55 21 -60 40 -4 13 -11
25 -14 28 -16 12 -324 556 -325 574 -2 23 21 66 34 66 5 0 11 -10 13 -22 4
-20 4 -19 6 5 2 42 21 32 21 -11 0 -39 14 -62 37 -62 9 0 13 16 13 50 0 28 3
50 8 50 4 0 5 -27 4 -60 -3 -39 0 -60 7 -60 7 0 12 25 13 63 l2 62 6 -75 6
-75 2 73 c1 40 7 81 14 91 9 15 9 23 -1 34 -13 16 -22 277 -9 277 3 0 49 -20
102 -45 l95 -45 92 45 c60 30 105 46 130 47 l39 0 0 129 0 129 188 3 c103 1
442 3 755 5 l567 2 0 -70z m1551 60 c40 -22 49 -60 49 -222 l0 -153 -101 3
-100 3 24 -47 24 -47 76 2 77 2 0 -258 0 -258 -86 0 -86 0 -46 -90 -47 -89 -3
132 c-1 74 -7 132 -12 132 -5 0 -11 -64 -12 -147 l-3 -148 -51 -3 -51 -3 -7
-52 c-3 -29 -6 -82 -6 -120 0 -63 4 -75 66 -199 56 -112 65 -138 61 -170 l-5
-38 139 0 139 0 0 -52 0 -53 -159 3 c-155 3 -161 2 -199 -21 -51 -33 -184 -97
-199 -97 -10 0 -13 31 -13 122 0 100 3 125 17 140 13 14 14 21 5 30 -8 8 -12
53 -12 132 0 89 -3 117 -11 109 -7 -7 -11 -50 -10 -117 l2 -106 -33 1 c-30 2
-31 2 -5 6 l27 4 0 91 0 90 -40 -32 c-39 -31 -40 -33 -40 -97 0 -46 -3 -64
-12 -61 -8 3 -11 21 -9 51 1 29 -2 47 -8 47 -6 0 -11 -20 -11 -46 0 -48 -19
-54 -21 -6 l-1 27 -7 -25 -7 -24 -22 22 c-21 21 -22 31 -24 205 -2 100 -3 260
-3 354 l0 173 128 0 c123 0 127 1 117 19 -11 22 -14 281 -2 281 4 0 25 -10 47
-23 36 -20 41 -27 46 -72 l6 -50 1 43 2 44 30 -24 c17 -13 48 -59 71 -106 32
-63 47 -84 66 -89 18 -4 30 -1 38 11 9 12 28 16 74 16 54 0 61 2 61 20 0 18
-7 20 -59 20 -38 0 -61 -4 -64 -12 -3 -7 -5 14 -4 47 0 47 1 51 4 18 l4 -43
55 0 54 0 1 43 c1 23 2 80 3 127 l1 85 -62 3 c-38 2 -66 8 -73 17 -10 12 -56
15 -266 15 l-254 0 0 130 0 130 263 0 262 0 87 92 c78 83 88 97 88 131 0 40 2
42 31 27z m-4391 -35 c0 -33 -2 -35 -36 -35 -38 0 -38 6 -1 48 28 31 37 28 37
-13z m2950 -90 c0 -39 -6 -51 -37 -85 -21 -22 -41 -40 -45 -40 -5 0 -8 29 -8
65 l0 65 38 19 c52 26 52 26 52 -24z m187 -6 c57 -28 106 -55 109 -60 3 -5
-41 -9 -101 -9 -80 0 -107 3 -111 14 -3 8 -17 12 -35 11 -28 -3 -29 -2 -29 46
0 48 0 49 32 49 19 0 76 -22 135 -51z m-670 -46 c-2 -16 -4 -5 -4 22 0 28 2
40 4 28 2 -13 2 -35 0 -50z m350 -80 c-20 -2 -52 -2 -70 0 -17 2 0 4 38 4 39
0 53 -2 32 -4z m-662 -232 c-4 -122 -12 -211 -17 -211 -6 0 -7 81 -4 213 4
116 6 216 6 222 0 5 5 4 11 -2 8 -8 9 -72 4 -222z m37 117 c3 -109 4 -113 26
-116 21 -3 22 -7 22 -124 0 -111 -1 -120 -17 -113 -10 4 -28 10 -40 12 -22 5
-23 9 -23 119 0 74 4 114 11 114 7 0 9 37 7 110 -2 61 0 110 4 110 4 0 9 -51
10 -112z m80 1 c-2 -70 1 -116 7 -122 8 -8 11 25 11 111 0 91 3 122 13 122 9
0 11 -29 9 -120 -3 -102 -1 -121 12 -126 13 -5 16 -27 16 -130 0 -68 -3 -124
-7 -124 -27 1 -32 22 -36 135 l-3 120 -2 -123 c-3 -162 -21 -153 -24 11 l-2
122 -6 -125 c-4 -89 -7 -105 -8 -55 -1 39 -5 148 -9 243 -6 165 -5 172 13 172
18 0 19 -7 16 -111z m88 -139 c6 0 10 -53 10 -130 0 -80 -4 -130 -10 -130 -6
0 -10 29 -10 68 0 37 -2 150 -4 252 -2 102 -1 130 1 63 2 -70 8 -123 13 -123z
m70 118 c0 -77 4 -117 10 -113 6 4 10 55 10 120 0 98 2 114 15 109 12 -5 15
-29 17 -113 l2 -106 3 103 c2 56 8 102 13 102 6 0 11 -43 12 -97 l2 -98 3 93
c2 50 6 92 8 92 2 0 16 -5 30 -12 23 -10 25 -17 27 -82 l2 -71 3 68 c4 63 5
67 23 57 15 -8 20 -21 20 -55 0 -33 4 -45 15 -45 11 0 15 11 15 36 0 20 5 34
10 32 6 -2 48 -36 94 -76 66 -57 92 -89 121 -143 20 -38 45 -75 56 -82 16 -10
19 -24 19 -88 0 -76 6 -89 41 -89 5 0 9 38 9 84 0 62 4 87 15 96 8 7 15 21 15
31 0 11 5 19 10 19 6 0 10 7 10 15 0 9 9 15 23 15 20 0 22 -5 24 -56 2 -47 -3
-67 -38 -136 l-40 -82 52 -104 52 -104 43 4 44 3 0 -57 c0 -58 0 -58 -30 -58
-31 0 -36 -6 -21 -29 5 -8 18 -12 30 -8 20 5 21 2 21 -80 l0 -84 -27 3 c-23 2
-29 8 -31 36 -2 24 -8 32 -23 32 -10 0 -19 4 -19 9 0 5 9 7 20 4 11 -3 20 -1
20 5 0 6 -10 12 -22 14 -18 2 -23 10 -25 41 -2 41 -37 108 -83 161 -16 18 -26
36 -22 40 4 4 2 6 -3 5 -6 -2 -22 5 -37 15 -27 17 -28 22 -30 105 l-2 86 -5
-83 -6 -82 -35 23 c-19 13 -45 27 -57 31 -17 5 -23 16 -24 39 -2 30 -2 31 -6
5 -5 -33 -3 -32 -48 -11 -41 20 -42 24 -14 49 12 10 25 29 30 42 8 19 16 22
76 24 l68 2 -68 3 c-65 4 -68 5 -61 26 14 45 49 87 72 87 30 0 24 24 -6 28
-12 2 -22 9 -22 15 -1 20 -69 107 -85 107 -9 0 -15 9 -15 23 0 26 -17 47 -38
47 -10 0 -13 -10 -10 -35 2 -22 -1 -36 -9 -39 -10 -4 -13 -43 -13 -165 0 -173
-1 -175 -55 -158 -28 8 -30 12 -27 47 2 21 -1 41 -7 44 -7 5 -12 -8 -13 -36
-1 -39 -2 -37 -8 17 l-7 60 -3 -60 -4 -60 -6 75 -6 75 -2 -67 c-1 -38 -3 -68
-5 -68 -2 0 -25 7 -51 16 l-47 16 3 119 c2 66 0 119 -4 119 -5 0 -9 -53 -10
-117 l-2 -118 -6 135 -6 135 -2 -134 c-1 -74 -5 -132 -8 -128 -4 3 -3 121 1
260 7 243 8 254 26 250 17 -5 19 -16 19 -125z m-310 -88 l0 -210 -25 12 c-24
11 -25 15 -25 100 0 52 4 88 10 88 6 0 10 5 10 10 0 6 -7 10 -16 10 -8 0 -13
3 -11 8 3 4 -32 5 -78 2 l-82 -5 8 29 c15 53 52 96 104 119 55 26 99 45 103
46 1 1 2 -93 2 -209z m960 0 c0 -11 -7 -20 -15 -20 -27 0 -18 30 13 39 1 1 2
-8 2 -19z m-1022 -102 c2 -43 0 -78 -3 -78 -4 0 -15 5 -26 10 -14 8 -19 23
-21 58 l-1 47 -4 -43 -4 -43 -30 22 c-31 22 -59 67 -59 94 0 13 12 15 73 13
l72 -3 3 -77z m-275 -5 c4 -27 4 -27 12 -5 14 41 42 19 31 -24 -4 -14 -17 -29
-29 -33 -18 -7 -23 -4 -29 13 -6 20 -6 19 -8 -4 -1 -23 -2 -23 -10 -5 -9 20
-9 20 -9 0 -1 -11 -10 -26 -21 -33 -19 -12 -20 -10 -20 36 0 45 3 50 33 65 43
21 45 21 50 -10z m-142 -150 c-52 -46 -60 -67 -39 -106 19 -37 93 -94 176
-136 l42 -21 2 -113 2 -112 3 108 c5 148 23 137 25 -15 l2 -123 6 120 6 120 4
-130 4 -130 6 122 5 121 55 -23 55 -23 5 -144 6 -143 2 138 c2 130 3 137 22
137 18 0 20 -7 20 -72 0 -181 -14 -508 -22 -508 -4 0 -9 66 -10 148 l-2 147
-3 -142 c-2 -79 -5 -143 -7 -143 -3 0 -11 3 -20 6 -13 5 -16 30 -18 153 l-2
146 -6 -142 -5 -143 -52 30 -53 30 -2 73 -2 72 -5 -68 c-6 -66 -6 -67 -23 -47
-10 11 -18 27 -18 36 0 10 -6 14 -14 11 -28 -11 -115 109 -151 210 -14 37 -30
70 -37 75 -19 12 -62 10 -76 -4 -7 -7 -36 -11 -72 -9 -43 2 -61 -1 -64 -11 -2
-7 -11 -38 -20 -68 -10 -30 -19 -64 -21 -75 -2 -11 -4 -21 -4 -22 -1 -2 -1 -4
-1 -5 0 -2 -4 -18 -9 -35 l-10 -33 90 0 89 0 -2 -137 -2 -138 -3 127 -4 127
-84 3 -85 3 -11 -32 c-6 -18 -7 -38 -3 -44 4 -7 3 -9 -3 -6 -12 8 -36 -100
-26 -116 3 -6 1 -7 -5 -3 -7 4 -14 -6 -20 -26 l-8 -33 130 -3 c75 -1 135 -7
143 -14 8 -6 13 -31 13 -60 0 -45 -2 -50 -20 -45 -18 5 -20 0 -20 -54 0 -81
-18 -75 -23 9 l-3 67 -2 -71 -2 -70 -87 -77 c-49 -42 -108 -95 -133 -117 -57
-53 -79 -65 -85 -48 -3 7 -6 81 -8 163 l-3 150 1 -163 0 -162 -65 1 c-36 1
-55 4 -42 6 22 4 22 7 22 144 l0 139 -40 -20 c-21 -11 -42 -20 -45 -20 -3 0
-5 57 -5 126 0 95 3 129 14 140 8 7 75 125 149 261 74 137 146 268 159 293 14
25 39 70 55 100 217 403 242 440 308 474 l30 16 3 -52 c3 -50 2 -52 -47 -95z
m1566 132 c9 -25 -4 -29 -17 -6 -7 15 -7 21 0 21 6 0 13 -7 17 -15z m449 -10
c-3 -9 -11 -13 -16 -10 -8 5 -7 11 1 21 14 18 24 11 15 -11z m204 -90 c0 -63
-4 -115 -8 -115 -5 0 -20 13 -35 28 -25 26 -27 34 -27 115 l0 87 35 0 35 0 0
-115z m577 -347 c-2 -13 -4 -3 -4 22 0 25 2 35 4 23 2 -13 2 -33 0 -45z
m-2362 -626 c-15 -16 -17 33 -9 295 l9 288 3 -289 c1 -159 0 -291 -3 -294z
m35 429 c0 -83 4 -142 10 -146 13 -8 13 -282 1 -290 -5 -3 -12 -2 -14 2 -3 5
-8 135 -12 291 -6 207 -5 282 4 282 8 0 11 -43 11 -139z m40 -11 l4 145 6
-165 c13 -309 12 -410 -5 -410 -12 0 -15 15 -15 73 0 41 -2 168 -4 283 -2 162
-2 178 3 69 l7 -140 4 145z m60 -19 c0 -134 -1 -139 -20 -134 -19 5 -20 14
-20 139 0 127 1 134 20 134 19 0 20 -7 20 -139z m34 123 c14 -5 16 -27 16
-140 0 -83 -4 -134 -10 -134 -6 0 -11 54 -12 138 l-2 137 -6 -135 -6 -135 -2
138 c-1 75 0 137 2 137 2 0 11 -3 20 -6z m33 -211 c-2 -38 -3 -7 -3 67 0 74 1
105 3 68 2 -38 2 -98 0 -135z m33 67 c0 -80 -4 -130 -10 -130 -6 0 -10 50 -10
130 0 80 4 130 10 130 6 0 10 -50 10 -130z m70 36 c0 -35 3 -145 7 -244 l6
-182 -26 0 -27 0 0 124 c0 73 -4 127 -10 131 -6 4 -10 58 -10 130 l0 124 30
-10 c29 -11 30 -13 30 -73z m27 -326 c0 -103 -1 -103 -8 35 -3 77 -6 187 -6
245 0 103 1 103 8 -35 3 -77 6 -187 6 -245z m58 358 c24 -11 25 -14 27 -117
l2 -106 3 103 c3 81 7 102 18 102 12 0 15 -18 15 -95 0 -82 2 -94 16 -88 13 5
15 20 12 84 -2 44 -2 79 -1 79 24 0 33 -18 35 -69 l2 -56 3 53 c2 28 6 52 9
52 3 0 18 -9 34 -20 30 -21 53 -53 64 -87 7 -22 5 -23 -66 -25 l-73 -2 75 -5
75 -6 -3 -30 c-2 -16 -10 -44 -19 -62 -15 -33 -115 -133 -132 -133 -6 0 -12
35 -14 83 l-3 82 -2 -87 c-3 -124 -22 -114 -22 11 0 56 -4 103 -10 106 -6 4
-10 -31 -10 -99 0 -59 -4 -108 -10 -111 -6 -4 -10 35 -10 110 0 89 -3 116 -12
112 -9 -2 -13 -36 -15 -116 0 -62 -4 -115 -7 -118 -3 -4 -6 46 -6 110 0 66 -4
118 -10 122 -13 8 -13 235 0 235 5 0 21 -5 35 -12z m685 -134 c0 -2 -7 -4 -15
-4 -8 0 -15 4 -15 10 0 5 7 7 15 4 8 -4 15 -8 15 -10z m14 -41 c0 -19 5 -23
28 -23 l28 0 0 -75 0 -75 -41 0 c-24 0 -38 -4 -34 -10 3 -5 19 -10 36 -10 51
0 29 -45 -34 -69 l-27 -11 0 55 c0 30 -4 55 -10 55 -5 0 -10 -25 -10 -55 0
-30 -2 -55 -4 -55 -2 0 -11 -3 -20 -6 -13 -5 -16 2 -16 40 0 50 -1 51 -31 36
-12 -7 -19 -21 -19 -40 0 -17 -9 -39 -21 -51 -31 -31 -10 -49 57 -49 l54 0 0
-100 0 -99 33 -18 c35 -19 38 -20 65 -22 15 -1 17 -13 14 -131 -4 -147 -1
-145 -77 -75 -22 21 -71 65 -108 98 l-68 60 3 79 c2 43 0 78 -4 78 -5 0 -8
-34 -8 -76 0 -67 -2 -75 -15 -64 -11 9 -16 36 -17 99 l-2 86 -3 -80 -4 -80
-266 3 c-234 2 -268 1 -284 -14 -15 -13 -33 -15 -128 -9 -61 4 -111 11 -111
16 0 5 -6 9 -12 9 -15 0 -12 99 3 114 5 6 9 30 9 55 l0 46 143 -1 c78 0 148
-1 155 -2 8 -1 12 -20 12 -52 0 -43 3 -50 20 -50 18 0 20 7 20 55 0 42 3 55
15 55 11 0 15 -12 15 -50 0 -27 5 -50 10 -50 6 0 10 25 10 55 0 41 4 55 15 55
10 0 15 -16 18 -57 l3 -58 2 63 c2 48 5 62 17 62 12 0 15 -13 15 -61 0 -40 4
-58 11 -54 6 4 9 31 8 61 -2 29 0 57 4 61 4 3 7 -21 7 -55 0 -81 19 -81 22 1
l2 62 3 -55 c6 -82 23 -87 23 -7 0 41 4 67 11 67 7 0 9 -24 7 -68 -3 -66 -2
-67 22 -68 14 -1 19 1 13 3 -15 6 -18 143 -3 143 5 0 11 -30 13 -67 l3 -68 2
73 c3 93 22 96 22 3 0 -39 3 -72 8 -74 4 -3 7 29 6 71 l-1 77 6 -70 5 -70 6
74 5 74 68 38 67 38 2 -32 1 -32 4 35 c4 27 20 49 77 105 64 63 80 86 100 148
9 28 51 19 50 -10z m-1454 -367 c0 -46 -4 -65 -14 -69 -22 -9 -26 2 -26 70 0
56 2 63 20 63 18 0 20 -7 20 -64z m60 -6 c0 -40 -4 -70 -10 -70 -6 0 -10 30
-10 70 0 40 4 70 10 70 6 0 10 -30 10 -70z m17 -27 c-2 -21 -4 -6 -4 32 0 39
2 55 4 38 2 -18 2 -50 0 -70z m-127 22 c0 -61 -1 -65 -30 -80 -51 -26 -60 -21
-60 35 0 43 4 52 28 67 15 10 31 23 35 30 18 28 27 10 27 -52z m178 -2 c-2
-42 -8 -68 -15 -71 -10 -3 -13 15 -13 67 0 57 3 71 15 71 13 0 15 -12 13 -67z
m52 -2 c0 -43 -4 -60 -15 -65 -12 -4 -15 6 -15 59 0 51 3 65 15 65 12 0 15
-13 15 -59z m32 -11 c-5 -81 -22 -77 -22 5 0 47 3 63 13 60 8 -4 11 -24 9 -65z
m38 -5 c0 -30 -4 -57 -10 -60 -6 -4 -10 18 -10 60 0 42 4 64 10 60 6 -3 10
-30 10 -60z m1710 -65 l0 -130 -95 0 -95 0 0 123 c0 68 3 127 7 130 3 4 46 7
95 7 l88 0 0 -130z m-1660 60 c0 -47 -3 -60 -15 -60 -12 0 -15 13 -15 60 0 47
3 60 15 60 12 0 15 -13 15 -60z m1360 -65 c0 -104 -2 -125 -15 -125 -13 0 -15
21 -15 125 0 104 2 125 15 125 13 0 15 -21 15 -125z m-1320 60 c0 -30 -4 -55
-10 -55 -5 0 -10 25 -10 55 0 30 5 55 10 55 6 0 10 -25 10 -55z m40 -10 c0
-37 -4 -55 -12 -55 -9 0 -12 16 -10 55 5 71 22 71 22 0z m140 -240 c0 -8 -118
-65 -135 -65 -9 0 -15 -9 -15 -21 0 -34 -24 -49 -79 -49 -39 0 -51 -4 -51 -15
0 -11 -12 -15 -50 -15 -47 0 -50 2 -50 25 0 23 4 25 47 25 l47 0 -29 29 c-15
17 -37 31 -48 33 -20 3 -20 4 -3 21 15 14 36 17 131 17 65 0 116 4 120 10 6
10 115 15 115 5z m2200 -57 c0 -37 -7 -64 -22 -88 l-22 -35 -7 25 -7 25 -1
-27 c-2 -47 -21 -31 -21 16 0 40 -5 49 -47 90 l-48 46 88 0 87 0 0 -52z
m-2080 3 c0 -26 -10 -51 -21 -51 -5 0 -9 6 -9 13 0 7 -9 18 -20 25 -27 16 -17
32 21 32 22 0 29 -5 29 -19z m-290 -291 c0 -6 32 -10 75 -10 l75 0 0 -44 c0
-27 6 -48 15 -56 13 -11 21 -8 50 20 22 21 35 44 35 59 l1 26 19 -24 c14 -16
20 -38 20 -72 l0 -49 -105 0 -105 0 -6 28 c-4 15 -14 35 -22 45 -8 9 -11 17
-6 17 5 0 -18 11 -50 25 -80 33 -91 45 -38 45 23 0 42 -4 42 -10z m-184 -68
c-9 -8 -26 10 -26 26 1 15 2 15 15 -2 8 -11 13 -21 11 -24z M2664 1395 c0 -66
1 -92 3 -57 2 34 2 88 0 120 -2 31 -3 3 -3 -63z M3563 3055 c0 -38 2 -53 4
-32 2 20 2 52 0 70 -2 17 -4 1 -4 -38z M2718 2703 c23 -2 59 -2 80 0 20 2 1 4
-43 4 -44 0 -61 -2 -37 -4z M5944 2880 c0 -69 1 -97 3 -62 2 34 2 90 0 125 -2
34 -3 6 -3 -63z M4273 2530 c0 -41 2 -58 4 -37 2 20 2 54 0 75 -2 20 -4 3 -4
-38z M3803 2895 c0 -27 2 -38 4 -22 2 15 2 37 0 50 -2 12 -4 0 -4 -28z M3823
2670 c0 -36 2 -50 4 -32 2 17 2 47 0 65 -2 17 -4 3 -4 -33z M3413 2280 c0 -47
2 -66 4 -42 2 23 2 61 0 85 -2 23 -4 4 -4 -43z M3344 2145 c0 -49 1 -71 3 -48
2 23 2 64 0 90 -2 26 -3 8 -3 -42z M4134 1945 c0 -66 1 -92 3 -57 2 34 2 88 0
120 -2 31 -3 3 -3 -63z M4343 1665 c0 -33 2 -45 4 -27 2 18 2 45 0 60 -2 15
-4 0 -4 -33z M4663 1565 c0 -22 2 -30 4 -17 2 12 2 30 0 40 -3 9 -5 -1 -4 -23z"/>
  </g>
</svg>