<svg xmlns="http://www.w3.org/2000/svg" viewBox="0 0 792 400" preserveAspectRatio="xMidYMid meet">
  <g transform="translate(0,400) scale(0.1,-0.1)" fill="currentColor" stroke="none">
    <path d="M2635 3360 c-500 -3 -917 -9 -926 -13 -25 -12 -76 -88 -86 -127 -5
-20 -6 -486 -3 -1100 l5 -1065 30 -45 c56 -84 23 -80 682 -80 320 0 592 -4
605 -9 13 -5 84 -64 158 -131 187 -170 172 -162 305 -156 61 3 195 8 300 12
104 3 193 8 197 10 5 3 8 27 8 54 0 65 -11 70 -154 70 -69 0 -117 4 -121 10
-11 19 -5 363 7 377 7 9 43 13 127 13 123 0 141 6 141 45 0 44 -8 45 -341 45
l-317 0 -44 -36 c-23 -20 -83 -73 -131 -118 -49 -44 -103 -88 -120 -97 -29
-15 -90 -15 -615 -9 -634 8 -603 5 -629 67 -20 49 -19 2078 1 2128 30 70 -163
65 2262 65 2073 0 2188 -1 2207 -17 49 -44 47 -14 41 -1100 -3 -560 -7 -1032
-10 -1050 -3 -18 -16 -46 -30 -63 l-26 -30 -587 0 -587 0 -31 23 c-17 12 -84
69 -149 127 l-117 105 -266 3 c-308 3 -291 9 -291 -98 0 -38 -5 -71 -12 -78
-8 -8 -53 -12 -138 -12 -85 0 -130 -4 -138 -12 -16 -16 -16 -200 0 -216 8 -8
54 -12 140 -12 150 0 148 1 148 -108 0 -108 -9 -105 277 -97 164 5 246 12 263
21 14 7 81 65 150 129 69 64 136 124 150 133 22 15 83 17 620 20 403 2 604 6
623 14 37 14 74 60 87 108 7 25 9 391 8 1108 l-3 1070 -30 43 c-17 24 -46 54
-64 66 l-34 23 -1316 -2 c-724 -2 -1725 -5 -2226 -8z"/>
    <path d="M4688 3040 l-37 -40 -90 0 c-70 0 -111 6 -178 27 -84 26 -98 27 -323
27 -264 1 -313 -6 -460 -68 -96 -41 -198 -123 -230 -187 -11 -21 -28 -43 -38
-48 -10 -5 -80 -13 -156 -17 -117 -6 -138 -10 -146 -25 -15 -27 23 -49 88 -49
76 0 92 -11 92 -63 -1 -35 -28 -91 -169 -347 -117 -210 -174 -305 -186 -305
-24 0 -387 628 -383 662 4 37 44 61 112 66 59 5 94 25 82 46 -5 8 -128 11
-407 11 -347 0 -400 -2 -405 -15 -9 -23 15 -45 47 -45 39 0 76 -19 96 -49 10
-14 160 -260 334 -546 174 -286 326 -530 337 -543 25 -26 62 -28 90 -4 12 9
72 112 135 227 449 829 443 817 490 863 34 33 150 82 194 82 30 0 50 -38 35
-67 -6 -10 -34 -27 -64 -36 -65 -21 -163 -97 -173 -134 -8 -33 14 -64 79 -114
72 -55 264 -145 389 -183 328 -100 547 -185 596 -229 29 -27 61 -93 61 -127
-1 -41 -32 -96 -88 -154 -49 -51 -59 -56 -130 -72 -116 -27 -361 -25 -464 4
-93 25 -225 108 -288 180 -47 53 -102 147 -120 207 -16 53 -37 75 -70 75 -49
0 -50 -6 -50 -285 0 -270 2 -285 42 -285 9 0 34 15 54 32 54 48 131 50 344 8
159 -31 169 -32 369 -27 187 4 218 7 334 35 158 39 250 87 353 184 99 94 106
113 102 252 -3 106 -5 115 -33 157 -61 89 -118 135 -239 194 -64 31 -116 60
-116 64 0 4 9 16 20 26 10 9 27 40 36 69 9 28 27 69 40 91 l23 40 -22 44 c-34
66 -61 91 -100 91 -57 0 -61 -13 -53 -168 5 -108 3 -142 -7 -156 -13 -18 -25
-15 -228 49 -365 116 -447 153 -503 228 -31 42 -28 129 6 183 31 49 51 62 148
100 70 27 84 29 205 28 144 -2 197 -14 327 -80 101 -51 234 -174 278 -257 37
-71 70 -94 115 -83 16 4 27 16 31 34 11 46 22 52 94 52 42 0 71 -5 78 -12 6
-9 11 -189 14 -503 3 -455 2 -493 -15 -518 -25 -38 -71 -59 -144 -65 -65 -5
-90 -20 -79 -48 6 -15 25 -16 184 -11 97 4 292 7 433 7 211 0 259 3 275 15 19
15 19 15 0 30 -12 9 -41 15 -77 15 -64 0 -115 18 -144 50 -19 21 -20 40 -23
517 -2 362 1 499 9 509 16 20 207 19 255 -1 19 -8 61 -35 94 -60 49 -38 66
-59 95 -120 37 -79 66 -105 91 -84 12 10 14 42 12 178 l-3 166 -120 6 c-66 4
-319 7 -562 8 -341 1 -444 4 -450 14 -4 6 -10 80 -13 162 l-5 150 -45 3 c-42
3 -49 0 -82 -38z"/>
  </g>
</svg>
