<svg xmlns="http://www.w3.org/2000/svg" viewBox="0 0 120 60">
  <g transform="translate(0,60) scale(1,-1)" fill="currentColor" stroke="none">
    <path d="M0 300 l0 -300 595 0 595 0 0 300 0 300 -595 0 -595 0 0 -300z m245
210 c-3 -5 -12 -10 -18 -10 -7 0 -6 4 3 10 19 12 23 12 15 0z m36 -188 c-4
-67 -11 -66 -11 3 0 32 3 55 7 51 4 -4 6 -28 4 -54z m169 34 c0 -2 -7 -7 -16
-10 -8 -3 -12 -2 -9 4 6 10 25 14 25 6z m465 -6 c3 -5 1 -10 -4 -10 -6 0 -11
5 -11 10 0 6 2 10 4 10 3 0 8 -4 11 -10z m-428 -112 c-3 -7 -5 -2 -5 12 0 14
2 19 5 13 2 -7 2 -19 0 -25z m-210 -60 c-3 -7 -5 -2 -5 12 0 14 2 19 5 13 2
-7 2 -19 0 -25z"/>
  </g>
</svg>