<svg xmlns="http://www.w3.org/2000/svg" viewBox="0 0 800 307">
<g transform="translate(0.000000,307.000000) scale(0.100000,-0.100000)"
fill="currentColor" stroke="none">
<path d="M0 1535 l0 -1535 4000 0 4000 0 0 1535 0 1535 -4000 0 -4000 0 0
-1535z m5165 1444 c84 -26 161 -94 196 -172 33 -75 33 -231 1 -337 -59 -188
-204 -327 -421 -401 -30 -11 -69 -19 -86 -19 -38 0 -81 30 -73 52 3 8 36 32
73 53 92 54 185 155 231 252 36 75 38 82 42 209 5 159 0 193 -37 233 -25 27
-36 31 -83 31 -108 0 -220 -82 -332 -244 -110 -158 -172 -294 -239 -526 -51
-175 -60 -241 -61 -430 -1 -165 1 -194 22 -265 33 -112 68 -180 129 -246 127
-137 290 -146 473 -26 160 105 300 275 419 506 59 115 63 143 24 168 -38 24
-50 40 -80 102 -22 47 -25 63 -21 132 4 69 9 84 40 132 28 42 50 61 100 87 72
37 97 36 147 -5 44 -38 55 -82 47 -193 l-7 -95 88 7 c48 3 100 9 114 12 21 5
32 0 53 -22 37 -41 33 -75 -18 -158 -45 -72 -96 -205 -96 -248 0 -31 36 -88
55 -88 29 0 92 38 125 77 50 57 128 179 135 214 12 55 36 213 42 272 5 56 4
57 -21 57 -62 0 -45 79 28 129 125 86 210 100 218 36 3 -22 -16 -138 -37 -230
-32 -140 -45 -227 -45 -312 0 -76 3 -92 20 -111 17 -18 25 -20 40 -12 38 20
132 202 185 356 24 71 36 114 64 234 23 96 91 192 147 206 34 9 74 -11 74 -35
0 -11 -7 -49 -15 -84 -31 -134 -69 -368 -80 -487 -5 -58 -3 -79 9 -95 14 -20
15 -20 49 -2 36 20 112 115 143 179 16 35 16 40 1 89 -19 59 -22 136 -6 192
18 64 79 159 150 230 77 77 167 125 290 153 125 28 230 -5 279 -89 19 -34 23
-54 22 -132 0 -82 -3 -99 -31 -154 -16 -34 -52 -89 -78 -122 -97 -123 -90
-102 -49 -164 20 -30 42 -55 50 -55 24 0 226 257 271 345 7 13 21 20 40 20 26
0 30 -4 33 -31 2 -25 -15 -56 -100 -175 -57 -79 -127 -175 -157 -214 -52 -68
-53 -71 -46 -120 3 -27 10 -83 15 -122 28 -228 -4 -527 -78 -721 -37 -97 -117
-181 -194 -207 -44 -14 -53 -14 -106 1 -93 27 -130 58 -176 148 -39 78 -40 82
-39 181 0 80 6 117 26 177 53 156 127 276 276 442 35 39 68 81 73 92 13 27
-18 116 -63 181 -16 24 -29 53 -29 63 0 11 15 41 34 67 87 124 136 247 136
346 0 62 -3 71 -29 98 -24 24 -38 29 -76 29 -26 0 -63 -9 -85 -20 -44 -23
-118 -110 -152 -180 -41 -84 -25 -216 29 -237 8 -3 36 4 61 16 40 20 47 21 60
7 13 -12 13 -20 2 -46 -24 -57 -82 -87 -194 -99 l-60 -6 -54 -80 c-95 -142
-201 -235 -283 -250 -70 -13 -139 40 -139 107 0 36 -11 68 -24 68 -6 0 -29
-35 -51 -77 -101 -193 -242 -247 -330 -126 -16 23 -37 42 -46 42 -9 1 -35 -24
-58 -54 -50 -66 -133 -129 -189 -144 -116 -32 -242 60 -242 176 0 40 29 134
58 190 21 41 11 51 -52 55 l-49 3 -36 -70 c-70 -133 -83 -155 -170 -290 -180
-280 -360 -428 -594 -486 -116 -29 -253 -17 -356 33 -57 27 -183 147 -215 204
-57 102 -85 225 -92 409 -4 83 -10 156 -14 163 -5 10 -23 0 -66 -37 -37 -32
-79 -58 -112 -68 -56 -18 -63 -16 -144 35 l-28 17 -45 -47 c-58 -61 -114 -88
-181 -88 -59 0 -130 28 -165 65 -30 31 -63 32 -76 3 -16 -35 -100 -124 -139
-149 -42 -26 -117 -29 -160 -6 -32 17 -72 57 -99 100 -9 15 -21 27 -25 27 -5
0 -31 -31 -59 -68 -123 -166 -240 -233 -322 -185 -98 58 -110 168 -53 458 31
158 31 160 -19 133 -25 -13 -30 -19 -97 -116 -95 -138 -121 -205 -144 -378
-16 -115 -30 -148 -81 -192 -52 -47 -83 -51 -112 -18 -13 15 -23 36 -23 46 0
38 -21 29 -82 -33 -108 -110 -204 -138 -263 -77 -16 17 -33 30 -38 30 -5 0
-33 -24 -61 -53 -87 -91 -193 -109 -293 -51 -52 30 -85 72 -112 144 -80 211
93 562 336 682 59 29 79 33 161 36 107 4 138 -5 182 -55 87 -99 -21 -282 -150
-255 -44 10 -49 33 -16 73 64 76 -5 148 -113 119 -55 -14 -133 -88 -164 -154
-15 -30 -35 -92 -45 -138 -30 -130 -18 -234 35 -305 32 -44 63 -51 108 -23 49
30 84 89 110 186 27 97 47 138 88 182 37 39 93 45 122 12 18 -19 18 -24 1
-123 -34 -195 -11 -219 91 -97 35 41 84 104 108 140 l45 65 7 142 6 142 -34 8
c-55 14 -51 48 12 117 56 61 131 106 176 106 53 0 57 -9 50 -119 -3 -56 -1
-101 3 -101 5 0 36 35 69 79 72 94 144 159 223 201 80 43 116 39 142 -15 20
-43 19 -77 -9 -225 -31 -166 -55 -326 -55 -371 0 -87 56 -71 145 43 85 108 89
118 102 263 27 289 36 413 30 429 -8 19 -45 16 -129 -10 -61 -20 -88 -8 -88
40 0 19 8 43 18 54 16 19 123 52 168 52 47 0 58 22 65 130 7 92 10 106 33 128
20 20 38 27 86 30 89 7 94 0 85 -120 -7 -98 -7 -98 17 -98 23 0 117 19 219 46
81 21 106 18 125 -11 14 -21 15 -31 6 -50 -14 -30 -52 -47 -157 -70 -218 -48
-217 -48 -230 -85 -16 -45 -40 -482 -31 -556 4 -32 15 -77 26 -101 32 -73 75
-57 168 65 24 32 28 46 33 141 7 140 42 239 125 351 70 95 134 150 231 199 58
29 70 31 166 31 92 0 108 -3 138 -23 18 -12 39 -34 46 -47 16 -31 17 -99 2
-137 -11 -31 -57 -83 -73 -83 -5 0 -17 -7 -26 -15 -13 -12 -26 -13 -55 -7 -56
11 -65 32 -32 75 66 87 -6 155 -124 116 -42 -14 -114 -82 -139 -130 -49 -94
-65 -161 -65 -274 0 -97 3 -116 24 -157 30 -59 72 -83 110 -63 31 16 84 71
102 105 7 14 18 50 25 80 33 140 79 208 149 216 69 8 70 4 55 -143 -13 -137
-12 -164 8 -171 34 -11 204 217 246 333 16 44 30 78 66 160 48 113 123 251
176 327 222 315 488 459 719 387z m-4215 -228 c64 -10 160 -58 208 -104 133
-127 117 -410 -31 -565 -67 -70 -114 -103 -190 -134 -67 -27 -82 -29 -202 -30
-128 0 -129 0 -152 27 -27 31 -28 38 -7 59 11 11 35 16 81 16 127 0 226 42
305 129 55 61 88 139 88 207 0 42 -31 135 -59 178 -41 61 -99 86 -202 86 -172
0 -310 -80 -404 -235 l-36 -60 3 -115 c3 -106 6 -120 36 -178 55 -109 114
-178 257 -297 27 -22 106 -96 176 -165 139 -138 182 -203 214 -323 15 -60 16
-77 5 -125 -31 -144 -90 -255 -176 -331 -25 -21 -79 -57 -122 -79 -204 -105
-441 -94 -557 25 -53 54 -68 106 -63 210 3 73 9 95 30 128 70 109 179 165 319
165 97 0 149 -21 205 -82 63 -68 68 -105 23 -161 -30 -40 -52 -34 -82 21 -66
122 -163 144 -253 58 -42 -41 -44 -45 -44 -102 1 -94 49 -157 145 -190 38 -13
56 -14 84 -5 20 5 54 13 76 16 54 9 89 29 147 83 69 64 92 118 92 217 1 70 -2
86 -27 126 -33 56 -113 133 -227 219 -101 77 -287 254 -336 321 -176 240 -177
484 -3 714 73 97 248 215 373 252 67 20 206 42 231 36 11 -2 45 -8 75 -12z
m2897 -1428 c30 -37 29 -69 -5 -133 l-29 -53 23 -56 c13 -31 24 -61 24 -68 0
-11 -58 -33 -90 -33 -8 0 -24 12 -35 27 -23 28 -45 25 -45 -6 0 -10 -7 -24
-15 -31 -18 -15 -91 -25 -97 -14 -8 14 18 317 30 346 6 15 21 30 34 32 13 3
43 10 68 15 68 15 111 6 137 -26z m-607 -115 c10 -29 62 -222 77 -286 4 -18
-1 -25 -31 -37 -33 -14 -39 -14 -67 1 -40 20 -100 11 -132 -22 -33 -33 -87
-49 -105 -30 -11 11 -7 28 23 107 20 52 51 130 68 174 37 97 64 125 117 125
34 0 39 -4 50 -32z m3510 -55 c0 -9 -22 -60 -49 -112 -39 -78 -51 -112 -60
-180 -6 -46 -13 -86 -15 -89 -11 -11 -82 -20 -90 -12 -6 6 -9 48 -7 94 2 77 0
89 -28 140 -16 31 -32 69 -36 86 -6 26 -3 31 20 40 40 15 70 12 99 -11 15 -12
28 -20 30 -18 2 2 9 14 15 27 22 42 121 71 121 35z m-3962 -32 c5 -33 -6 -71
-21 -71 -25 0 -47 -25 -52 -60 -3 -19 -9 -75 -14 -123 -4 -48 -12 -92 -18 -98
-5 -5 -23 -13 -41 -18 -49 -15 -56 2 -49 122 7 110 1 132 -35 132 -20 0 -23 5
-22 38 2 53 26 73 109 90 99 22 139 18 143 -12z m-516 -221 c-3 -150 -13 -206
-40 -227 -20 -17 -78 -17 -84 0 -3 6 -1 50 3 97 5 47 11 114 14 150 3 36 8 75
11 88 5 26 37 42 74 39 l25 -2 -3 -145z m3924 98 c-3 -29 -8 -96 -11 -148 -8
-134 -13 -158 -35 -170 -17 -9 -28 -4 -69 35 -53 50 -81 58 -81 23 0 -13 -5
-40 -10 -60 -9 -31 -17 -39 -47 -47 -20 -6 -41 -8 -46 -4 -6 4 -7 60 -3 155
10 222 31 263 99 196 58 -58 65 -62 82 -48 9 7 15 29 15 54 0 53 13 66 68 66
l44 0 -6 -52z m-4286 -33 c14 -16 7 -157 -12 -255 -18 -95 -100 -153 -192
-136 -42 8 -72 60 -61 110 7 35 23 177 24 218 1 23 7 29 42 39 57 18 61 7 54
-127 -5 -73 -3 -114 4 -118 18 -12 32 33 41 139 10 116 12 122 44 135 31 13
42 12 56 -5z m3639 -73 c6 -15 17 -54 25 -87 7 -33 23 -96 35 -140 12 -44 19
-85 17 -92 -8 -20 -91 -27 -116 -10 -28 19 -83 7 -119 -26 -32 -31 -98 -46
-106 -25 -3 8 24 90 60 182 36 91 65 170 65 175 0 26 84 65 117 54 6 -3 16
-16 22 -31z m-4154 -52 c6 -19 -19 -79 -39 -93 -6 -4 -22 -5 -35 -2 -35 9 -88
-13 -111 -45 -26 -36 -26 -91 -1 -114 30 -27 59 -12 82 42 24 55 33 62 78 62
l33 0 -7 -72 c-9 -92 -17 -105 -70 -129 -64 -28 -124 -34 -167 -16 -55 23 -73
58 -73 143 1 67 4 77 38 126 54 78 123 116 214 117 43 1 53 -2 58 -19z m3650
-34 c49 -21 68 -70 53 -137 -14 -59 -58 -109 -123 -138 -43 -19 -45 -22 -45
-60 0 -45 -18 -61 -69 -61 -37 0 -51 22 -41 64 5 17 11 88 15 158 4 79 12 134
20 145 9 12 37 22 82 29 37 7 69 12 71 13 1 0 18 -5 37 -13z m-515 -101 c9
-10 16 -73 22 -178 9 -150 8 -162 -9 -175 -47 -34 -93 -27 -93 15 0 58 -17 60
-51 5 -17 -29 -35 -52 -40 -52 -13 0 -39 31 -39 46 0 20 -30 17 -36 -3 -21
-65 -27 -73 -65 -83 -69 -19 -70 -15 -29 175 12 55 26 120 31 144 12 58 25 73
63 69 28 -3 65 -41 79 -81 6 -19 33 8 58 60 14 30 32 50 53 59 40 17 41 17 56
-1z m-685 -155 c109 -47 107 -198 -4 -308 -28 -28 -58 -46 -95 -56 -66 -20
-78 -20 -121 -2 -96 41 -100 190 -8 303 22 26 129 82 160 83 12 0 42 -9 68
-20z m-547 -92 c7 -7 12 -29 12 -50 0 -33 -4 -40 -27 -49 -70 -27 -93 -44
-109 -77 -28 -59 -5 -86 81 -94 68 -6 28 -103 -48 -115 -24 -4 -53 0 -81 11
-37 14 -47 24 -65 66 -26 61 -26 65 1 137 30 77 98 146 164 166 63 19 58 19
72 5z"/>
<path d="M5494 2154 c-16 -24 -16 -29 0 -79 11 -35 23 -56 36 -60 32 -10 40 3
40 63 0 90 -41 131 -76 76z"/>
<path d="M7397 1428 c-93 -115 -147 -230 -176 -376 -16 -78 -13 -130 9 -192
21 -58 77 -120 107 -120 41 1 74 50 99 146 16 58 19 109 19 323 0 182 -3 255
-11 258 -7 2 -28 -15 -47 -39z"/>
<path d="M3693 421 c-18 -16 -35 -41 -39 -55 -7 -31 15 -71 46 -81 30 -9 81
24 105 68 18 34 19 39 5 64 -23 41 -75 43 -117 4z"/>
</g>
</svg>
