<svg xmlns="http://www.w3.org/2000/svg" viewBox="30 250 300 100">
<g transform="translate(0.000000,140.000000) scale(0.100000,-0.100000)"
fill="currentColor" stroke="none">
<path d="M941 1215 c68 -24 88 -36 109 -71 36 -57 21 -117 -42 -169 -51 -43 -108 -63
-283 -101 l-30 -6 25 -8 c14 -4 51 -15 82 -25 55 -16 104 -45 121 -72 13 -21
35 -15 64 19 72 83 153 134 233 145 39 5 89 -10 94 -29 22 -79 31 -104 36
-111 6 -7 180 77 215 103 6 4 33 13 62 20 45 12 54 11 77 -4 14 -9 26 -22 26
-29 0 -8 11 -24 25 -37 33 -31 31 -63 -4 -127 -16 -29 -26 -53 -23 -53 23 0
75 46 88 76 8 19 38 60 67 90 43 44 59 54 86 54 39 0 71 -16 71 -35 0 -20 16
-27 32 -12 29 28 116 77 137 77 16 0 26 -10 37 -35 20 -49 18 -68 -12 -96 -31
-29 -84 -103 -84 -118 0 -17 27 -13 69 8 28 15 45 34 64 73 54 109 147 173
254 173 73 0 87 -11 86 -62 -1 -32 -9 -45 -55 -88 -31 -29 -77 -58 -107 -70
-66 -25 -77 -37 -55 -60 29 -29 108 -4 202 64 33 25 42 37 42 62 0 38 13 64
54 107 54 59 105 74 120 36 4 -11 19 -12 66 -7 50 5 64 3 80 -12 26 -24 26
-78 1 -102 -38 -36 -81 -96 -81 -114 0 -26 23 -24 75 7 49 28 65 25 65 -11 0
-19 -16 -36 -72 -75 -39 -28 -89 -55 -110 -62 -34 -10 -42 -9 -66 9 -39 29
-45 74 -16 131 13 26 26 52 29 59 10 27 -26 11 -75 -32 -98 -87 -235 -163
-310 -172 -63 -7 -104 9 -131 53 l-21 34 -31 -19 c-89 -55 -125 -71 -158 -71
-53 0 -74 27 -65 86 l6 47 -59 -56 c-46 -44 -66 -57 -91 -57 -26 0 -33 6 -46
35 -8 19 -19 35 -24 35 -12 0 -154 -91 -158 -101 -2 -5 -30 -42 -62 -83 -63
-79 -104 -115 -159 -136 -30 -12 -35 -12 -46 4 -23 31 5 76 108 179 97 97 116
129 56 94 -17 -9 -48 -20 -68 -23 -31 -5 -43 -1 -66 18 -23 20 -29 35 -33 82
-4 55 -6 57 -31 54 -14 -2 -30 -12 -36 -23 -21 -42 -43 -65 -93 -98 -87 -59
-168 -58 -209 3 -13 18 -23 43 -23 56 0 13 -4 25 -8 28 -12 7 -76 -17 -153
-57 -156 -82 -359 -86 -448 -11 -16 14 -21 30 -21 65 0 39 7 56 40 100 22 30
40 56 40 59 0 4 -11 17 -25 30 -49 46 -27 68 87 86 58 9 88 19 107 36 32 30
100 80 121 91 8 4 -3 5 -25 2 -22 -2 -48 -5 -58 -5 -10 0 -30 -12 -45 -27 -28
-29 -101 -45 -207 -47 -44 -1 -50 2 -53 21 -4 30 20 73 67 121 45 46 70 53
291 92 80 13 215 11 261 -5z"/>
<path d="M794 1057 c4 -16 -3 -36 -21 -62 -18 -27 -21 -36 -10 -32 8 3 33 9
53 13 52 10 118 45 122 66 4 20 -50 38 -112 38 -35 0 -38 -2 -32 -23z"/>
<path d="M533 778 c-65 -71 -46 -98 70 -98 43 0 85 4 95 9 9 5 29 14 45 20 59
23 28 52 -88 82 -90 24 -86 24 -122 -13z"/>
<path d="M2450 790 c0 -5 5 -10 10 -10 6 0 10 5 10 10 0 6 -4 10 -10 10 -5 0
-10 -4 -10 -10z"/>
<path d="M1552 745 c-61 -37 -90 -71 -74 -87 14 -14 41 2 107 62 39 36 50 50
38 54 -8 3 -15 6 -16 5 -1 0 -26 -15 -55 -34z"/>
<path d="M1111 725 c-18 -20 -31 -47 -31 -62 0 -24 2 -25 36 -20 20 4 44 14
53 24 15 15 15 23 5 52 -7 20 -16 37 -22 39 -5 1 -23 -13 -41 -33z"/>
</g>
</svg>
