<svg version="1.0" xmlns="http://www.w3.org/2000/svg"
 viewBox="0 0 271.000000 94.000000"
 preserveAspectRatio="xMidYMid meet">
<g transform="translate(0.000000,94.000000) scale(0.100000,-0.100000)"
fill="currentColor" stroke="none">
<path d="M420 933 c-52 -3 -136 -18 -235 -41 -60 -15 -77 -24 -116 -63 -59
-61 -78 -104 -56 -126 15 -15 22 -15 92 0 41 10 87 17 102 17 15 0 36 11 49
25 13 14 34 25 48 25 14 0 37 5 52 10 15 6 36 8 47 4 19 -6 18 -8 -9 -20 -46
-23 -67 -36 -115 -76 -39 -32 -56 -39 -110 -44 -100 -10 -143 -52 -84 -84 14
-7 25 -17 25 -22 0 -5 -18 -33 -40 -62 -99 -131 -40 -215 152 -216 107 0 190
20 288 71 41 22 89 42 106 45 30 6 32 4 38 -32 4 -21 20 -50 37 -67 28 -27 34
-29 83 -24 30 3 67 12 82 20 37 19 104 85 114 113 8 20 56 41 67 30 3 -3 7
-28 8 -56 5 -98 67 -125 166 -74 28 14 54 22 57 18 4 -4 1 -9 -5 -11 -7 -3
-13 -11 -13 -18 0 -7 -21 -29 -48 -48 -62 -46 -119 -109 -148 -162 -19 -37
-21 -45 -9 -55 21 -18 68 -3 113 36 42 36 142 156 142 170 0 10 165 114 180
114 6 0 10 -9 10 -20 0 -11 9 -29 21 -41 28 -28 52 -18 120 48 59 57 77 58 57
5 -14 -36 2 -78 33 -87 29 -10 92 12 157 55 l62 39 15 -29 c23 -45 53 -60 118
-60 42 0 71 7 110 26 76 39 208 128 240 163 25 27 67 42 67 25 0 -4 -13 -29
-30 -56 -53 -85 -35 -158 39 -158 37 0 73 17 142 67 56 40 72 62 59 84 -8 12
-16 11 -52 -9 -45 -23 -73 -28 -82 -14 -8 13 24 66 66 112 42 45 47 73 19 109
-18 24 -21 24 -77 14 -55 -10 -60 -10 -75 9 -21 27 -56 19 -103 -23 -43 -37
-66 -81 -66 -126 0 -30 -6 -37 -62 -73 -70 -46 -120 -63 -163 -58 -40 4 -48
43 -13 57 70 27 127 59 165 96 35 34 43 48 43 78 0 33 -4 39 -35 54 -78 37
-229 -37 -283 -140 -46 -87 -102 -130 -148 -113 -14 5 -13 9 3 37 10 17 37 53
61 80 43 48 43 49 31 88 -17 56 -38 59 -109 16 -33 -20 -62 -40 -65 -46 -11
-17 -33 -9 -39 15 -7 27 -52 41 -90 26 -34 -12 -99 -83 -126 -136 -21 -39 -81
-90 -93 -78 -3 3 7 28 21 57 33 68 33 104 -1 133 -15 13 -27 30 -27 39 0 8
-10 19 -23 24 -42 16 -102 -7 -309 -120 -28 -15 -48 -11 -48 10 0 11 -4 23
-10 26 -5 3 -10 22 -10 40 0 44 -26 59 -94 53 -75 -6 -156 -50 -219 -119 -30
-32 -59 -59 -65 -59 -5 0 -17 11 -26 25 -24 36 -95 68 -201 90 -40 9 -22 17
80 40 105 23 158 44 202 79 55 46 72 79 62 129 -16 92 -119 130 -319 120z
m162 -149 c35 -6 57 -30 41 -45 -30 -28 -145 -69 -195 -69 -6 0 2 16 17 36 19
25 25 42 21 59 -9 35 9 38 116 19z m1592 -267 c-7 -19 -60 -57 -68 -49 -8 8
44 61 61 61 7 1 10 -5 7 -12z m-1826 -13 c76 -22 117 -51 101 -71 -25 -29 -83
-46 -165 -47 -118 -1 -144 29 -83 99 36 41 61 44 147 19z m972 -22 c0 -21
-127 -122 -153 -122 -46 0 4 67 88 117 23 14 65 17 65 5z m-464 -49 c15 -43 4
-62 -47 -84 -26 -10 -33 -10 -46 4 -14 13 -14 20 -3 47 13 32 68 85 78 75 3
-3 11 -22 18 -42z"/>
</g>
</svg>
