<svg width="560" height="120" viewBox="0 0 560 120" fill="none" xmlns="http://www.w3.org/2000/svg">
  <defs>
    <linearGradient id="mark_accent" x1="18" y1="16" x2="118" y2="104" gradientUnits="userSpaceOnUse">
      <stop stop-color="#F97316"/>
      <stop offset="0.55" stop-color="#FB7185"/>
      <stop offset="1" stop-color="#38BDF8"/>
    </linearGradient>
  </defs>

  <g>
    <path d="M16 42C16 24 30 12 48 12H88C106 12 120 24 120 42V78C120 96 106 108 88 108H48C30 108 16 96 16 78V42Z" fill="#0F172A"/>
    <circle cx="42" cy="34" r="6" fill="#F8FAFC"/>
    <circle cx="68" cy="28" r="6" fill="#F8FAFC"/>
    <circle cx="94" cy="34" r="6" fill="#F8FAFC"/>
    <path d="M34 60C42 50 50 50 58 60C66 70 74 70 82 60C90 50 98 50 106 60" stroke="url(#mark_accent)" stroke-width="7" stroke-linecap="round"/>
    <circle cx="68" cy="82" r="14" fill="#111827" stroke="#F8FAFC" stroke-opacity="0.9" stroke-width="3"/>
  </g>

  <g fill="#0F172A">
    <path d="M163.84 80.08C150.4 80.08 139.84 70.24 139.84 57.44C139.84 44.56 150.4 34.72 163.84 34.72C177.36 34.72 187.92 44.56 187.92 57.44C187.92 70.24 177.36 80.08 163.84 80.08ZM163.84 67.36C170 67.36 174.24 63.12 174.24 57.44C174.24 51.68 170 47.44 163.84 47.44C157.76 47.44 153.52 51.68 153.52 57.44C153.52 63.12 157.76 67.36 163.84 67.36Z"/>
    <path d="M196.47 79V35.8H209.35V40.12C212.23 36.68 216.95 34.72 222.15 34.72C233.03 34.72 240.79 42.32 240.79 53.92V79H227.91V56.88C227.91 51.12 224.95 47.68 219.59 47.68C214.47 47.68 209.35 51.44 209.35 58.56V79H196.47Z"/>
    <path d="M275.986 79.96C262.466 79.96 251.91 70.52 251.91 57.44C251.91 44.2 262.386 34.72 275.266 34.72C287.266 34.72 297.106 43.16 297.106 57.12C297.106 58.8 296.946 60.56 296.706 61.52H264.79C266.23 66.24 270.47 68.64 276.146 68.64C281.106 68.64 285.106 66.88 288.146 63.84L294.786 71.76C289.986 76.64 283.026 79.96 275.986 79.96ZM264.87 53.28H284.786C283.746 48.56 280.226 45.92 275.186 45.92C270.306 45.92 266.466 48.8 264.87 53.28Z"/>
    <path d="M306.6 95.72V35.8H319.48V40.6C323 36.92 328.04 34.72 333.88 34.72C346.2 34.72 355.16 44.16 355.16 57.44C355.16 70.72 346.2 80.08 333.88 80.08C328.36 80.08 323.56 78.08 320.04 74.8V95.72H306.6ZM330.92 67.36C337.08 67.36 341.4 63.04 341.4 57.44C341.4 51.84 337.08 47.44 330.92 47.44C324.84 47.44 320.52 51.84 320.52 57.44C320.52 63.04 324.84 67.36 330.92 67.36Z"/>
    <path d="M384.541 79.96C372.221 79.96 362.621 70.44 362.621 57.44C362.621 44.36 372.221 34.72 384.541 34.72C396.861 34.72 406.381 44.36 406.381 57.44C406.381 70.44 396.861 79.96 384.541 79.96ZM384.541 67.36C390.381 67.36 393.501 62.72 393.501 57.44C393.501 52.08 390.381 47.44 384.541 47.44C378.701 47.44 375.501 52.08 375.501 57.44C375.501 62.72 378.701 67.36 384.541 67.36Z"/>
    <path d="M415.194 79V35.8H428.074V42.2C430.954 37.48 435.914 35 441.194 35C443.114 35 444.634 35.24 445.754 35.72V47.6C444.394 47.04 442.714 46.8 440.474 46.8C433.834 46.8 428.074 50.8 428.074 59.12V79H415.194Z"/>
    <path d="M451.201 79V35.8H464.081V79H451.201ZM457.601 29.72C453.041 29.72 449.441 26.12 449.441 21.72C449.441 17.24 453.041 13.64 457.601 13.64C462.081 13.64 465.681 17.24 465.681 21.72C465.681 26.12 462.081 29.72 457.601 29.72Z"/>
    <path d="M495.445 95.96C487.285 95.96 479.205 93.4 473.125 88.6L479.205 79.08C483.765 82.76 488.885 84.68 494.805 84.68C503.445 84.68 508.165 80.44 508.165 72.76V70.44C504.565 74.12 499.605 76 493.925 76C481.445 76 472.565 67.28 472.565 55.44C472.565 43.36 481.605 34.72 493.685 34.72C499.445 34.72 504.405 36.76 508.165 40.92V35.8H521.045V72.12C521.045 87.08 511.285 95.96 495.445 95.96ZM497.085 64C503.085 64 507.325 60.08 507.325 55.04C507.325 49.84 503.085 46 497.085 46C491.165 46 486.925 49.84 486.925 55.04C486.925 60.08 491.165 64 497.085 64Z"/>
  </g>
</svg>
