<svg width="960" height="320" viewBox="0 0 960 320" fill="none" xmlns="http://www.w3.org/2000/svg">
  <defs>
    <linearGradient id="bg" x1="80" y1="24" x2="880" y2="296" gradientUnits="userSpaceOnUse">
      <stop stop-color="#0F172A"/>
      <stop offset="1" stop-color="#111827"/>
    </linearGradient>
    <linearGradient id="accent" x1="96" y1="64" x2="864" y2="256" gradientUnits="userSpaceOnUse">
      <stop stop-color="#F97316"/>
      <stop offset="0.5" stop-color="#FB7185"/>
      <stop offset="1" stop-color="#38BDF8"/>
    </linearGradient>
    <filter id="soft" x="-20%" y="-20%" width="140%" height="140%">
      <feGaussianBlur stdDeviation="10"/>
    </filter>
  </defs>
  <rect x="24" y="24" width="912" height="272" rx="36" fill="url(#bg)"/>
  <rect x="32" y="32" width="896" height="256" rx="30" stroke="#FFFFFF" stroke-opacity="0.12"/>
  <g filter="url(#soft)" opacity="0.45">
    <circle cx="156" cy="158" r="86" fill="#F97316"/>
    <circle cx="780" cy="112" r="58" fill="#38BDF8"/>
  </g>
  <rect x="88" y="74" width="214" height="172" rx="34" fill="#020617" stroke="url(#accent)" stroke-width="4"/>
  <path d="M126 160C138 132 150 132 162 160C174 188 186 188 198 160C210 132 222 132 234 160C246 188 258 188 270 160" stroke="url(#accent)" stroke-width="10" stroke-linecap="round"/>
  <circle cx="138" cy="110" r="11" fill="#E5E7EB"/>
  <circle cx="252" cy="110" r="11" fill="#E5E7EB"/>
  <circle cx="138" cy="210" r="11" fill="#E5E7EB"/>
  <circle cx="252" cy="210" r="11" fill="#E5E7EB"/>
  <path d="M330 109H851" stroke="#FFFFFF" stroke-opacity="0.12" stroke-width="2"/>
  <text x="330" y="95" fill="#F8FAFC" font-family="Arial, Helvetica, sans-serif" font-size="72" font-weight="700" letter-spacing="6">OPENRIG</text>
  <text x="334" y="148" fill="#CBD5E1" font-family="Arial, Helvetica, sans-serif" font-size="24" font-weight="600" letter-spacing="2">STANDALONE • VST3 • SERVER • HARDWARE</text>
  <text x="334" y="191" fill="#94A3B8" font-family="Arial, Helvetica, sans-serif" font-size="23">
    Cross-platform pedalboard engine for desktop, DAWs, remote control,
  </text>
  <text x="334" y="223" fill="#94A3B8" font-family="Arial, Helvetica, sans-serif" font-size="23">and a dedicated hardware unit.</text>
  <rect x="334" y="244" width="156" height="24" rx="12" fill="#1E293B"/>
  <rect x="342" y="250" width="74" height="12" rx="6" fill="#F97316"/>
  <rect x="500" y="244" width="156" height="24" rx="12" fill="#1E293B"/>
  <rect x="508" y="250" width="97" height="12" rx="6" fill="#FB7185"/>
  <rect x="666" y="244" width="156" height="24" rx="12" fill="#1E293B"/>
  <rect x="674" y="250" width="121" height="12" rx="6" fill="#38BDF8"/>
</svg>
