<svg version="1.0" xmlns="http://www.w3.org/2000/svg"
 viewBox="0 0 1182.000000 178.000000"
 preserveAspectRatio="xMidYMid meet">
<g transform="translate(0.000000,178.000000) scale(0.100000,-0.100000)"
fill="currentColor" stroke="none">
<path d="M48 1773 c-35 -4 -37 -6 -43 -46 -3 -23 -5 -400 -3 -837 2 -625 6
-800 16 -817 11 -20 21 -23 77 -23 l63 0 6 63 c3 34 7 385 8 779 2 394 6 720
10 724 4 3 625 9 1381 12 l1373 5 83 -43 c102 -53 159 -109 205 -202 34 -67
36 -76 36 -169 0 -74 -5 -111 -20 -151 -26 -71 -98 -160 -163 -203 -103 -68
-65 -65 -1164 -72 l-993 -6 0 -191 c0 -105 5 -198 10 -206 8 -13 153 -15 1189
-18 649 -1 1202 1 1228 5 l48 8 3 49 c2 27 -2 54 -8 60 -8 8 -337 12 -1160 16
-631 3 -1152 8 -1156 12 -12 12 -16 102 -5 118 8 12 141 15 951 22 680 5 951
10 978 19 140 44 288 166 341 280 61 130 76 259 46 388 -39 163 -168 312 -325
375 -25 10 -58 26 -75 35 -27 15 -154 16 -1465 17 -789 0 -1452 -1 -1472 -3z"/>
<path d="M3668 1746 l-28 -35 0 -796 c0 -860 -1 -844 52 -859 13 -3 64 -6 114
-6 73 0 94 3 105 17 11 12 15 88 19 352 5 248 9 343 19 363 13 26 14 26 160
33 174 9 471 1 522 -15 59 -17 86 -46 129 -137 33 -69 45 -110 61 -212 34
-219 46 -277 67 -325 29 -64 61 -76 200 -76 154 0 154 0 103 161 -22 68 -47
167 -56 219 -28 166 -66 313 -98 373 -16 31 -33 57 -37 57 -4 0 -11 7 -14 16
-4 11 16 40 67 93 86 90 124 162 140 260 35 227 -98 430 -329 508 -27 9 -55
21 -63 27 -10 8 -180 12 -560 14 l-546 3 -27 -35z m1073 -244 c153 -80 181
-279 55 -390 -20 -17 -53 -36 -75 -42 -23 -6 -183 -11 -390 -13 -344 -2 -351
-2 -371 19 -20 19 -22 36 -27 190 -5 157 -4 173 15 217 l21 47 359 0 360 0 53
-28z"/>
<path d="M6955 1746 l-27 -36 3 -809 c4 -762 5 -811 22 -828 15 -15 39 -19
138 -22 121 -3 121 -3 150 25 l29 28 0 750 c0 444 -4 776 -10 811 -5 33 -18
71 -28 85 -18 24 -25 25 -135 28 l-116 3 -26 -35z"/>
<path d="M11520 1748 c-24 -32 -24 -38 -30 -293 -3 -143 -9 -266 -13 -273 -7
-9 -26 -3 -80 27 -135 73 -183 84 -352 84 -136 -1 -156 -3 -218 -27 -213 -80
-352 -197 -439 -369 -64 -128 -62 -357 6 -500 87 -183 222 -298 424 -361 70
-22 102 -26 206 -26 147 0 203 14 350 90 95 49 116 53 116 25 0 -7 12 -27 26
-44 l26 -31 107 0 107 0 33 34 33 34 -4 789 -3 789 -33 42 -34 42 -102 0 -102
0 -24 -32z m-339 -704 c79 -24 119 -47 182 -104 38 -35 66 -72 87 -116 27 -57
30 -74 30 -160 0 -85 -4 -104 -32 -172 -39 -95 -97 -155 -193 -203 -65 -32
-78 -34 -183 -38 -111 -3 -114 -3 -180 30 -86 42 -155 111 -195 196 -61 132
-45 313 37 425 41 54 97 95 181 131 72 32 182 36 266 11z"/>
<path d="M367 1423 c-9 -8 -9 -1285 -1 -1336 l7 -38 61 3 c59 3 61 4 67 33 4
17 8 80 9 140 1 61 5 121 9 133 6 23 7 22 29 -17 68 -121 172 -210 302 -260
l79 -31 1236 0 1235 0 0 64 0 64 -1227 4 -1228 4 -81 41 c-104 53 -152 107
-194 216 -30 77 -32 88 -26 170 11 162 88 275 234 345 l77 37 997 5 c666 4
1001 9 1008 16 7 7 9 82 8 210 l-3 199 -1296 3 c-712 1 -1299 -1 -1302 -5z
m2460 -137 c13 -13 16 -116 3 -131 -11 -13 -111 -15 -789 -15 -427 -1 -860 -5
-963 -9 l-188 -8 -83 -40 c-99 -48 -191 -129 -244 -216 l-38 -62 -6 30 c-4 17
-7 129 -8 249 l-1 219 1155 -5 c636 -3 1158 -8 1162 -12z"/>
<path d="M5990 1314 c-14 -2 -65 -9 -115 -15 -105 -13 -220 -51 -300 -100 -87
-52 -213 -189 -257 -280 -81 -162 -80 -357 2 -528 33 -69 57 -100 123 -166
158 -155 334 -215 630 -215 267 0 487 101 633 292 57 74 89 150 110 267 20
108 11 191 -33 300 -35 89 -65 134 -137 210 -116 122 -263 196 -434 220 -89
13 -191 20 -222 15z m141 -248 c184 -39 314 -162 364 -342 16 -55 16 -65 1
-122 -37 -146 -124 -254 -253 -315 -66 -31 -72 -32 -203 -32 l-135 0 -76 37
c-87 43 -171 124 -210 205 -21 42 -24 62 -24 163 0 101 3 121 24 165 32 66
132 163 203 198 115 56 196 67 309 43z"/>
<path d="M7955 1310 c-16 -4 -48 -8 -70 -9 -47 -1 -123 -29 -218 -78 -75 -40
-148 -113 -196 -197 -59 -102 -37 -126 116 -126 56 0 114 5 129 10 15 6 56 37
91 70 82 77 135 94 288 94 93 0 118 -3 160 -22 58 -27 109 -72 126 -114 10
-25 9 -33 -8 -56 -26 -35 -45 -39 -261 -52 -411 -24 -518 -52 -616 -161 -82
-91 -91 -116 -91 -254 0 -138 11 -170 93 -257 53 -57 98 -85 197 -124 66 -26
79 -27 230 -27 146 1 167 3 235 27 41 15 106 45 144 68 l69 41 45 -48 45 -47
98 4 c54 2 102 7 106 12 4 4 9 215 11 469 l3 460 -35 52 c-98 147 -230 226
-431 256 -126 19 -210 22 -260 9z m419 -736 c20 -51 -13 -144 -71 -202 -27
-26 -75 -58 -120 -79 -76 -35 -76 -35 -197 -31 -100 3 -130 8 -174 27 -71 32
-102 70 -102 127 0 86 32 114 172 155 89 25 482 28 492 3z"/>
<path d="M9605 1309 c-103 -13 -220 -52 -308 -104 -43 -26 -85 -44 -92 -41 -7
2 -18 28 -24 57 -7 29 -16 59 -23 66 -7 9 -43 13 -129 13 -118 0 -119 0 -136
-27 -17 -25 -18 -72 -21 -595 l-4 -568 24 -29 c23 -30 24 -30 126 -30 79 -1
111 3 131 15 l28 16 6 322 c7 351 13 390 69 478 37 60 93 110 160 145 51 27
59 28 194 28 138 0 141 -1 182 -28 62 -44 92 -94 103 -174 4 -37 8 -226 9
-418 l0 -351 29 -17 c22 -13 52 -17 127 -17 93 0 99 1 126 27 l28 27 0 371 c0
338 -2 379 -20 449 -26 103 -62 167 -136 240 -71 72 -160 120 -259 141 -77 16
-88 16 -190 4z"/>
</g>
</svg>
